{"title":"GirlsDoPorn.E271.19.Years.Old.XXX.720p.WMV.XXXmegathor.wmv","uid":10622566,"size":1776963261,"categoryP":"porn","categoryS":"movies","magnet":"?xt=urn:btih:adbecc214f728452e6570218331cda0a8d785f72&amp;dn=GirlsDoPorn.E271.19.Years.Old.XXX.720p.WMV.XXXmegathor.wmv&amp;tr=udp%3A%2F%2Ftracker.openbittorrent.com%3A80&amp;tr=udp%3A%2F%2Fopen.demonii.com%3A1337&amp;tr=udp%3A%2F%2Ftracker.coppersurfer.tk%3A6969&amp;tr=udp%3A%2F%2Fexodus.desync.com%3A6969","seeders":1,"leechers":0,"uploader":"XXXmegathor","files":1,"time":1406184848,"description":"GirlsDoPorn.E271.19.Years.Old.XXX.720p.WMV.XXXmegathor\n\nSCREENIES &lt;a href=&quot;\nhttp://xxxtrapics.com/image/R0&quot; rel=&quot;nofollow&quot; target=&quot;_NEW&quot;&gt;\nhttp://xxxtrapics.com/image/R0&lt;/a&gt;\n\n\nDuration : 45mn 55s\nBit rate mode : Constant\nBit rate : 5 000 Kbps\nWidth : 1 280 pixels\nHeight : 720 pixels\nDisplay aspect ratio : 16:9\nFrame rate : 29.970 fps\nBit depth : 8 bits\nCompression mode : Lossy\nBits/(Pixel*Frame) : 0.181\nStream size : 1.60 GiB (97%)\nLanguage : English (US)\nNumberOfFrames : 82582\n\nAudio\nID : 1\nFormat : WMA\nFormat profile : Pro\nCodec ID : 162\nCodec ID/Info : Windows Media Audio\nDescription of the codec : Windows Media Audio 10 Professional - 440 kbps, 44 kHz, 2 channel 24 bit 2-pass VBR\nDuration : 45mn 55s\nBit rate mode : Variable\nBit rate : 322 Kbps\nChannel(s) : 2 channels\nSampling rate : 44.1 KHz\nBit depth : 24 bits\nStream size : 106 MiB (6%)\nLanguage : English (US)\nNumberOfFrames : 5391\n\n\n","torrent":{"xt":"urn:btih:adbecc214f728452e6570218331cda0a8d785f72","amp;dn":"GirlsDoPorn.E271.19.Years.Old.XXX.720p.WMV.XXXmegathor.wmv","amp;tr":["udp%3A%2F%2Ftracker.openbittorrent.com%3A80","udp%3A%2F%2Fopen.demonii.com%3A1337","udp%3A%2F%2Ftracker.coppersurfer.tk%3A6969","udp%3A%2F%2Fexodus.desync.com%3A6969"],"infoHash":"adbecc214f728452e6570218331cda0a8d785f72","infoHashBuffer":{"type":"Buffer","data":[173,190,204,33,79,114,132,82,230,87,2,24,51,28,218,10,141,120,95,114]},"announce":[],"urlList":[]}}